<svg xmlns="http://www.w3.org/2000/svg" viewBox="0 0 100 100" width="100" height="100">
  <defs>
    <linearGradient id="gradient" x1="0%" y1="0%" x2="0%" y2="100%">
      <stop offset="0%" style="stop-color:rgb(255,0,0);stop-opacity:1" />
      <stop offset="100%" style="stop-color:rgb(128,0,128);stop-opacity:1" />
    </linearGradient>
  </defs>
  <rect width="100%" height="100%" fill="url(#gradient)" />
  <path d="M 70 20 C 80 20, 90 30, 90 40 C 90 50, 80 60, 70 60 C 60 60, 50 50, 50 40 C 50 30, 60 20, 70 20 M 30 80 C 20 80, 10 70, 10 60 C 10 50, 20 40, 30 40 C 40 40, 50 50, 50 60 C 50 70, 40 80, 30 80" stroke="white" stroke-width="10" fill="none" stroke-linecap="round" />
</svg>