<?xml version="1.0" encoding="UTF-8"?>
<svg version="1.1" xmlns="http://www.w3.org/2000/svg" width="230" height="130">
<path d="M0 0 C75.9 0 151.8 0 230 0 C230 42.9 230 85.8 230 130 C154.1 130 78.2 130 0 130 C0 87.1 0 44.2 0 0 Z " fill="#FF0000" transform="translate(0,0)"/>
<path d="M0 0 C75.9 0 151.8 0 230 0 C230 42.9 230 85.8 230 130 C154.1 130 78.2 130 0 130 C0 87.1 0 44.2 0 0 Z M8 11 C7.34866089 11.75600998 6.69732178 12.51201996 6.02624512 13.29093933 C4.50356046 17.31049085 4.56581582 21.0794377 4.58007812 25.3449707 C4.57160858 26.27894684 4.56313904 27.21292297 4.55441284 28.17520142 C4.53103868 31.25886707 4.53002095 34.34203374 4.53125 37.42578125 C4.5241477 39.57423603 4.5164486 41.72268892 4.50817871 43.87113953 C4.4947322 48.37435171 4.49316551 52.87738859 4.49902344 57.38061523 C4.50491367 63.14085316 4.47435616 68.90024655 4.43390656 74.66032124 C4.40800626 79.09826663 4.4051544 83.53600946 4.40879822 87.97402 C4.40710856 90.09702867 4.39748094 92.22004685 4.37965393 94.34298134 C4.35742311 97.31817043 4.36718816 100.2916605 4.38476562 103.2668457 C4.37150238 104.13724991 4.35823914 105.00765411 4.34457397 105.9044342 C4.42732553 111.95786304 5.836891 116.48440598 10 121 C14.62786166 124.80798944 18.3132638 125.57931146 24.14657593 125.5146637 C24.95051777 125.52160922 25.7544596 125.52855475 26.58276331 125.53571075 C29.26818821 125.5539611 31.95272771 125.54372211 34.63818359 125.53344727 C36.56695719 125.5405068 38.49572525 125.54925196 40.42448425 125.55955505 C45.65806106 125.58205648 50.89133554 125.57910725 56.1249423 125.57023358 C60.49620256 125.56512276 64.86740605 125.57241716 69.23866045 125.57970566 C79.55271213 125.59670754 89.86661588 125.59313641 100.18066406 125.57641602 C110.81557493 125.55949819 121.45007525 125.57532407 132.08494127 125.6076389 C141.22059901 125.63434503 150.35612903 125.64160789 159.49182189 125.63312382 C164.9459587 125.62819715 170.39984855 125.63039617 175.85395432 125.65091133 C180.98411482 125.66928407 186.11368554 125.66328997 191.24381447 125.63871193 C193.12392318 125.63370893 195.00407694 125.63718051 196.88414955 125.64986038 C199.45659268 125.66583387 202.02710381 125.65080107 204.59945679 125.62818909 C205.33857815 125.64002482 206.07769952 125.65186054 206.8392185 125.66405493 C212.56430176 125.56223451 216.57647845 123.61497966 221 120 C225.29954214 114.91664685 225.58616147 109.89215239 225.54931641 103.42797852 C225.5646492 102.02657623 225.5646492 102.02657623 225.58029175 100.59686279 C225.60797809 97.52394633 225.60617889 94.45193223 225.6015625 91.37890625 C225.60934182 89.23330861 225.61801228 87.08771403 225.62753296 84.94212341 C225.64243426 80.45081587 225.6418916 75.95982283 225.63134766 71.46850586 C225.61975627 65.72385458 225.6536334 59.98049257 225.700037 54.23605442 C225.72955437 49.80666121 225.73124954 45.37757709 225.72501755 40.94810295 C225.7260417 38.83067202 225.7364746 36.71322328 225.75664139 34.59588814 C225.78142469 31.63022066 225.76776199 28.66704604 225.74462891 25.70141602 C225.75991638 24.8341539 225.77520386 23.96689178 225.79095459 23.073349 C225.69438697 17.44906519 224.31185297 14.14077017 220.87225914 9.70190334 C216.01500754 5.28661031 211.201171 4.55920182 204.85342407 4.59886169 C203.64751132 4.58866669 203.64751132 4.58866669 202.41723669 4.57826573 C199.73196393 4.55932371 197.04714845 4.56172858 194.36181641 4.56420898 C192.43304357 4.55522963 190.50427612 4.54502098 188.57551575 4.53367615 C183.34200085 4.50719126 178.10863313 4.50014335 172.8750577 4.49822879 C169.60415271 4.49609544 166.33328508 4.48968904 163.06238937 4.48173714 C151.64801408 4.45398955 140.23374384 4.441731 128.81933594 4.4440918 C118.18438623 4.44589435 107.54989293 4.41423198 96.91505873 4.36686081 C87.77941003 4.32761959 78.64391044 4.3115407 69.50817811 4.31345803 C64.0539707 4.3142225 58.60016905 4.30569554 53.14604568 4.27392387 C48.01583736 4.24485428 42.886422 4.24465984 37.75618553 4.26647377 C35.87606204 4.26960804 33.99588895 4.26254153 32.11585045 4.2443924 C18.65496857 3.74662751 18.65496857 3.74662751 8 11 Z " fill="#FFFDFD" transform="translate(0,0)"/>
<path d="M0 0 C4.1588133 1.66352532 7.80144079 3.53449444 11.609375 5.82421875 C12.24566833 6.20287079 12.88196167 6.58152283 13.53753662 6.97164917 C15.61058306 8.20658008 17.68043541 9.4467442 19.75 10.6875 C21.18021756 11.54243874 22.61055718 12.39717333 24.04101562 13.25170898 C26.22117751 14.5544808 28.40101222 15.85778396 30.57983398 17.16279602 C34.65703167 19.60426001 38.74135395 22.03279006 42.8369751 24.44322205 C44.61964562 25.49268978 46.40048018 26.54519775 48.18066406 27.59887695 C50.36178532 28.88916515 52.54595123 30.17432303 54.73339844 31.45385742 C55.69793945 32.02724854 56.66248047 32.60063965 57.65625 33.19140625 C58.49994141 33.68842041 59.34363281 34.18543457 60.21289062 34.69750977 C60.80263672 35.12733154 61.39238281 35.55715332 62 36 C62 36.66 62 37.32 62 38 C59.78222656 39.51782227 59.78222656 39.51782227 56.640625 41.31640625 C56.07241028 41.64510712 55.50419556 41.97380798 54.91876221 42.31246948 C53.68195858 43.02714169 52.44323967 43.73850695 51.20288086 44.44699097 C47.89238122 46.33798818 44.59502477 48.25163226 41.296875 50.1640625 C40.61512207 50.55865158 39.93336914 50.95324066 39.23095703 51.35978699 C34.45818227 54.12998594 29.72539176 56.96002617 25.015625 59.8359375 C24.3792511 60.22452438 23.7428772 60.61311127 23.08721924 61.01347351 C20.61944642 62.52280758 18.15327395 64.03465361 15.69104004 65.55300903 C13.9937895 66.59953726 12.29382338 67.64165748 10.59375 68.68359375 C9.15032227 69.57389282 9.15032227 69.57389282 7.67773438 70.48217773 C5 72 5 72 0 74 C0 49.58 0 25.16 0 0 Z " fill="#FFFDFD" transform="translate(90,28)"/>
<path d="M0 0 C0.33 0 0.66 0 1 0 C1 5.61 1 11.22 1 17 C-4.61 17 -10.22 17 -16 17 C-13 15 -13 15 -9.5625 13.1875 C-4.03160936 10.02532413 -1.6996802 6.09052071 0 0 Z " fill="#FF0B0B" transform="translate(229,113)"/>
<path d="M0 0 C2 3 2 3 3.6875 6.375 C5.98287142 10.4566191 9.08469336 12.57450841 13 15 C13.99 15.66 14.98 16.32 16 17 C10.72 17 5.44 17 0 17 C0 11.39 0 5.78 0 0 Z " fill="#FF0909" transform="translate(0,113)"/>
<path d="M0 0 C5.61 0 11.22 0 17 0 C17 5.28 17 10.56 17 16 C15.91840497 14.37760746 14.8435491 12.75019151 13.80859375 11.09765625 C10.05225529 5.52200856 6.33419639 3.13955078 0 1 C0 0.67 0 0.34 0 0 Z " fill="#FF0909" transform="translate(213,0)"/>
<path d="M0 0 C5.28 0 10.56 0 16 0 C14.37226727 1.08515515 12.74181886 2.16646587 11.09765625 3.2265625 C5.79546038 6.86991398 3.45824597 10.05923892 1 16 C0.67 16 0.34 16 0 16 C0 10.72 0 5.44 0 0 Z " fill="#FF0606" transform="translate(0,0)"/>
</svg>
